# xmcd
#
# Track frame offsets: 
#        150
#        17522
#        38630
#        57842
#        71769
#        96737
#        112720
#        144614
#        187160
#        199792
#        236337
#        256214
#        272522
#
# Disc length: 3807 seconds
#
# Revision: 4
# Processed by: cddbd v1.5.1PL0 Copyright (c) Steve Scherf et al.
# Submitted via: ExactAudioCopy v0.95a5
#
DISCID=b40edd0d
DTITLE=G3 - Rockin' In The Free World [CD1]
DYEAR=2004
DGENRE=Instrumental Rock
TTITLE0=Joe Satriani - The Extremist
TTITLE1=Joe Satriani - Crystal Planet
TTITLE2=Joe Satriani - Always With Me, Always With You
TTITLE3=Joe Satriani - Midnight
TTITLE4=Joe Satriani - The Mystical Potato Head Groove Thing
TTITLE5=Steve Vai - You're Here
TTITLE6=Steve Vai - Reaping
TTITLE7=Steve Vai - Whispering A Prayer
TTITLE8=Yngwie Malmsteen - Blitzkrieg
TTITLE9=Yngwie Malmsteen - Trilogy Suite Op. 5, The First Movement
TTITLE10=Yngwie Malmsteen - Red House
TTITLE11=Yngwie Malmsteen - Fugue (Concerto Suite For Electric Guitar 
TTITLE11=And Orchestra In E Flat Minor Op. 1)
TTITLE12=Yngwie Malmsteen - Finale
EXTD=YEAR: 2004
EXTT0=
EXTT1=
EXTT2=
EXTT3=
EXTT4=
EXTT5=
EXTT6=
EXTT7=
EXTT8=
EXTT9=
EXTT10=
EXTT11=
EXTT12=
PLAYORDER=
